<svg width="34" height="40" viewBox="0 0 34 40" fill="none" xmlns="http://www.w3.org/2000/svg">
<path d="M0 0H5V20V40H0V0ZM12.437 0C15.9104 0 18.9542 0.542741 21.5686 1.62822C24.2204 2.67752 26.4052 4.08865 28.1233 5.8616C29.8786 7.63455 31.1858 9.66079 32.0448 11.9403C32.9038 14.1836 33.3333 16.4993 33.3333 18.8874C33.3333 22.18 32.9598 25.0023 32.2129 27.3541C31.5033 29.6698 30.5882 31.6237 29.4678 33.2157C28.3473 34.7716 27.0775 36.0018 25.6583 36.9064C24.2764 37.8109 22.9318 38.4984 21.6246 38.9688C20.3175 39.403 19.1223 39.6925 18.0392 39.8372C16.9561 39.9457 16.1531 40 15.6303 40H8.96359L14.4928 35C19.0492 35 21.2325 33.8128 23.2493 30.9905C25.2661 28.1683 26.2745 24.0796 26.2745 18.7246C26.2745 17.0602 26.0691 15.4138 25.6583 13.7856C25.2474 12.1574 24.4444 10.692 23.2493 9.38942C22.0915 8.05066 20.5042 6.98327 18.4874 6.18725C16.4706 5.35504 13.8562 4.93894 10.6443 4.93894H8.69565V0H12.437Z" fill="#4C5341"/>
</svg>
