<svg width="28" height="28" viewBox="0 0 28 28" fill="none" xmlns="http://www.w3.org/2000/svg">
<path d="M10.0625 23.625C10.0625 23.8846 9.98552 24.1383 9.8413 24.3542C9.69708 24.57 9.4921 24.7383 9.25227 24.8376C9.01244 24.9369 8.74854 24.9629 8.49394 24.9123C8.23934 24.8616 8.00548 24.7366 7.82192 24.5531C7.63837 24.3695 7.51336 24.1357 7.46272 23.8811C7.41208 23.6265 7.43807 23.3626 7.53741 23.1227C7.63675 22.8829 7.80497 22.6779 8.02081 22.5337C8.23665 22.3895 8.49041 22.3125 8.75 22.3125C9.0981 22.3125 9.43194 22.4508 9.67808 22.6969C9.92422 22.9431 10.0625 23.2769 10.0625 23.625ZM20.125 22.3125C19.8654 22.3125 19.6117 22.3895 19.3958 22.5337C19.18 22.6779 19.0117 22.8829 18.9124 23.1227C18.8131 23.3626 18.7871 23.6265 18.8377 23.8811C18.8884 24.1357 19.0134 24.3695 19.1969 24.5531C19.3805 24.7366 19.6143 24.8616 19.8689 24.9123C20.1235 24.9629 20.3874 24.9369 20.6273 24.8376C20.8671 24.7383 21.0721 24.57 21.2163 24.3542C21.3605 24.1383 21.4375 23.8846 21.4375 23.625C21.4375 23.2769 21.2992 22.9431 21.0531 22.6969C20.8069 22.4508 20.4731 22.3125 20.125 22.3125ZM24.675 7.99531L21.7875 18.1016C21.6517 18.557 21.3734 18.9569 20.9934 19.2424C20.6134 19.5279 20.1518 19.6839 19.6766 19.6875H9.19844C8.72317 19.6839 8.26161 19.5279 7.88162 19.2424C7.50163 18.9569 7.22328 18.557 7.0875 18.1016L4.21094 8.00625V7.98438L3.13906 4.25469C3.11107 4.16324 3.05459 4.08314 2.97784 4.02608C2.9011 3.96901 2.80813 3.93798 2.7125 3.9375H0.875C0.758968 3.9375 0.647688 3.89141 0.565641 3.80936C0.483594 3.72731 0.4375 3.61603 0.4375 3.5C0.4375 3.38397 0.483594 3.27269 0.565641 3.19064C0.647688 3.10859 0.758968 3.0625 0.875 3.0625H2.7125C2.99838 3.0628 3.27649 3.15566 3.5052 3.32719C3.7339 3.49872 3.90092 3.7397 3.98125 4.01406L4.95469 7.4375H24.2484C24.3165 7.43662 24.3838 7.45205 24.4447 7.4825C24.5056 7.51294 24.5583 7.55752 24.5984 7.6125C24.64 7.66602 24.6685 7.72846 24.6818 7.79489C24.6951 7.86132 24.6927 7.92993 24.675 7.99531V7.99531ZM23.6687 8.3125H5.20625L7.92969 17.8609C8.01002 18.1353 8.17703 18.3763 8.40574 18.5478C8.63445 18.7193 8.91255 18.8122 9.19844 18.8125H19.6766C19.9624 18.8122 20.2406 18.7193 20.4693 18.5478C20.698 18.3763 20.865 18.1353 20.9453 17.8609L23.6687 8.3125Z" fill="#161A14"/>
</svg>
