<svg width="16" height="16" viewBox="0 0 16 16" fill="none" xmlns="http://www.w3.org/2000/svg">
<path d="M10.6735 12.998L5.80149 7.99995L10.6735 3.00195C10.7607 2.91266 10.8095 2.79278 10.8095 2.66795C10.8095 2.54313 10.7607 2.42325 10.6735 2.33395C10.6311 2.29072 10.5806 2.25637 10.5248 2.23292C10.469 2.20947 10.409 2.19739 10.3485 2.19739C10.288 2.19739 10.228 2.20947 10.1722 2.23292C10.1164 2.25637 10.0659 2.29072 10.0235 2.33395L4.83949 7.65095C4.74848 7.74433 4.69754 7.86956 4.69754 7.99995C4.69754 8.13035 4.74848 8.25558 4.83949 8.34895L10.0225 13.666C10.0649 13.7095 10.1156 13.7441 10.1716 13.7677C10.2276 13.7914 10.2877 13.8035 10.3485 13.8035C10.4093 13.8035 10.4694 13.7914 10.5254 13.7677C10.5814 13.7441 10.6321 13.7095 10.6745 13.666C10.7617 13.5767 10.8105 13.4568 10.8105 13.332C10.8105 13.2071 10.7617 13.0873 10.6745 12.998L10.6735 12.998Z" fill="black"/>
</svg>
