<svg width="12" height="12" viewBox="0 0 12 12" fill="none" xmlns="http://www.w3.org/2000/svg">
<path d="M6 3.25C5.4561 3.25 4.92442 3.41128 4.47218 3.71346C4.01995 4.01563 3.66747 4.44512 3.45933 4.94762C3.25119 5.45012 3.19673 6.00305 3.30284 6.5365C3.40895 7.06995 3.67086 7.55995 4.05546 7.94454C4.44005 8.32914 4.93005 8.59105 5.4635 8.69716C5.99695 8.80327 6.54988 8.74881 7.05238 8.54067C7.55488 8.33253 7.98437 7.98005 8.28654 7.52782C8.58871 7.07558 8.75 6.5439 8.75 6C8.75 5.27065 8.46027 4.57118 7.94454 4.05546C7.42882 3.53973 6.72935 3.25 6 3.25ZM6 8.25C5.55499 8.25 5.11998 8.11804 4.74997 7.87081C4.37996 7.62357 4.09157 7.27217 3.92127 6.86104C3.75097 6.4499 3.70642 5.9975 3.79323 5.56105C3.88005 5.12459 4.09434 4.72368 4.40901 4.40901C4.72368 4.09434 5.12459 3.88005 5.56105 3.79323C5.9975 3.70642 6.4499 3.75097 6.86104 3.92127C7.27217 4.09157 7.62357 4.37996 7.87081 4.74997C8.11804 5.11998 8.25 5.55499 8.25 6C8.25 6.59674 8.01295 7.16903 7.59099 7.59099C7.16903 8.01295 6.59674 8.25 6 8.25ZM8.75 0H3.25C2.38805 0 1.5614 0.34241 0.951903 0.951903C0.34241 1.5614 0 2.38805 0 3.25V8.75C0 9.1768 0.0840637 9.59941 0.247391 9.99372C0.410719 10.388 0.650112 10.7463 0.951903 11.0481C1.5614 11.6576 2.38805 12 3.25 12H8.75C9.1768 12 9.59941 11.9159 9.99372 11.7526C10.388 11.5893 10.7463 11.3499 11.0481 11.0481C11.3499 10.7463 11.5893 10.388 11.7526 9.99372C11.9159 9.59941 12 9.1768 12 8.75V3.25C12 2.8232 11.9159 2.40059 11.7526 2.00628C11.5893 1.61197 11.3499 1.25369 11.0481 0.951903C10.7463 0.650112 10.388 0.410719 9.99372 0.247391C9.59941 0.0840637 9.1768 0 8.75 0ZM11.5 8.75C11.5 9.47935 11.2103 10.1788 10.6945 10.6945C10.1788 11.2103 9.47935 11.5 8.75 11.5H3.25C2.52065 11.5 1.82118 11.2103 1.30546 10.6945C0.789731 10.1788 0.5 9.47935 0.5 8.75V3.25C0.5 2.52065 0.789731 1.82118 1.30546 1.30546C1.82118 0.789731 2.52065 0.5 3.25 0.5H8.75C9.47935 0.5 10.1788 0.789731 10.6945 1.30546C11.2103 1.82118 11.5 2.52065 11.5 3.25V8.75ZM9.75 2.75C9.75 2.84889 9.72068 2.94556 9.66574 3.02779C9.61079 3.11001 9.5327 3.1741 9.44134 3.21194C9.34998 3.24978 9.24944 3.25969 9.15245 3.24039C9.05546 3.2211 8.96637 3.17348 8.89645 3.10355C8.82652 3.03363 8.7789 2.94454 8.75961 2.84755C8.74031 2.75055 8.75022 2.65002 8.78806 2.55866C8.8259 2.4673 8.88999 2.38921 8.97221 2.33427C9.05444 2.27932 9.15111 2.25 9.25 2.25C9.38261 2.25 9.50979 2.30268 9.60355 2.39645C9.69732 2.49021 9.75 2.61739 9.75 2.75Z" fill="#F0F0F0"/>
</svg>
