<svg width="24" height="24" viewBox="0 0 24 24" fill="none" xmlns="http://www.w3.org/2000/svg">
<path d="M8.625 20.25C8.625 20.4725 8.55902 20.69 8.4354 20.875C8.31179 21.06 8.13609 21.2042 7.93052 21.2894C7.72495 21.3745 7.49875 21.3968 7.28052 21.3534C7.06229 21.31 6.86184 21.2028 6.7045 21.0455C6.54717 20.8882 6.44002 20.6877 6.39662 20.4695C6.35321 20.2512 6.37549 20.025 6.46063 19.8195C6.54578 19.6139 6.68998 19.4382 6.87498 19.3146C7.05999 19.191 7.2775 19.125 7.5 19.125C7.79837 19.125 8.08452 19.2435 8.29549 19.4545C8.50647 19.6655 8.625 19.9516 8.625 20.25ZM17.25 19.125C17.0275 19.125 16.81 19.191 16.625 19.3146C16.44 19.4382 16.2958 19.6139 16.2106 19.8195C16.1255 20.025 16.1032 20.2512 16.1466 20.4695C16.19 20.6877 16.2972 20.8882 16.4545 21.0455C16.6118 21.2028 16.8123 21.31 17.0305 21.3534C17.2488 21.3968 17.4749 21.3745 17.6805 21.2894C17.8861 21.2042 18.0618 21.06 18.1854 20.875C18.309 20.69 18.375 20.4725 18.375 20.25C18.375 19.9516 18.2565 19.6655 18.0455 19.4545C17.8345 19.2435 17.5484 19.125 17.25 19.125ZM21.15 6.85312L18.675 15.5156C18.5586 15.906 18.32 16.2488 17.9943 16.4935C17.6686 16.7382 17.273 16.8719 16.8656 16.875H7.88437C7.477 16.8719 7.08138 16.7382 6.75567 16.4935C6.42997 16.2488 6.19138 15.906 6.075 15.5156L3.60937 6.8625V6.84375L2.69062 3.64688C2.66663 3.56849 2.61822 3.49984 2.55244 3.45092C2.48666 3.40201 2.40697 3.37541 2.325 3.375H0.75C0.650544 3.375 0.555161 3.33549 0.484835 3.26516C0.414509 3.19484 0.375 3.09946 0.375 3C0.375 2.90054 0.414509 2.80516 0.484835 2.73484C0.555161 2.66451 0.650544 2.625 0.75 2.625H2.325C2.57004 2.62525 2.80842 2.70485 3.00445 2.85187C3.20049 2.9989 3.34364 3.20545 3.4125 3.44063L4.24687 6.375H20.7844C20.8427 6.37425 20.9004 6.38747 20.9526 6.41357C21.0048 6.43967 21.05 6.47787 21.0844 6.525C21.12 6.57088 21.1444 6.6244 21.1558 6.68134C21.1672 6.73828 21.1652 6.79708 21.15 6.85312V6.85312ZM20.2875 7.125H4.4625L6.79687 15.3094C6.86573 15.5445 7.00889 15.7511 7.20492 15.8981C7.40096 16.0452 7.63933 16.1247 7.88437 16.125H16.8656C17.1107 16.1247 17.349 16.0452 17.5451 15.8981C17.7411 15.7511 17.8843 15.5445 17.9531 15.3094L20.2875 7.125Z" fill="#161A14"/>
</svg>
